# xmcd
#
# Track frame offsets:
# 150
# 16703
# 31247
# 52307
# 75201
# 94264
# 118959
# 137950
# 170713
# 191967
# 211530
#
# Disc length: 3408 seconds
#
#
# Revision: 2
# Processed by: cddbd v1.5.1PL2 Copyright (c) Steve Scherf et al.
# Submitted via: FreeRIP 2.944 
#
DISCID=950d4e0b
DTITLE=David Gogo - Halfway To Memphis
DYEAR=2001
DGENRE=Bluesrock
TTITLE0=Louisiana Blues
TTITLE1=Click Clack
TTITLE2=Nightlife
TTITLE3=Bad Faces
TTITLE4=Soul fever
TTITLE5=Halfway to Memphis
TTITLE6=Rollin' and Tumblin'
TTITLE7=This is a man's world
TTITLE8=(I Gotta) Testify
TTITLE9=I Should Have Lied
TTITLE10=Blues medley
EXTD=
EXTT0=
EXTT1=
EXTT2=
EXTT3=
EXTT4=
EXTT5=
EXTT6=
EXTT7=
EXTT8=
EXTT9=
EXTT10=
PLAYORDER=
